<svg width="19" height="19" viewBox="0 0 19 19" fill="none" xmlns="http://www.w3.org/2000/svg">
<path d="M5.56617 6.43223C6.27693 7.91259 7.24584 9.30005 8.4729 10.5271C9.69995 11.7542 11.0874 12.7231 12.5678 13.4338C12.6951 13.495 12.7588 13.5255 12.8393 13.549C13.1256 13.6325 13.4772 13.5725 13.7197 13.3989C13.7879 13.3501 13.8463 13.2917 13.963 13.175C14.32 12.8179 14.4985 12.6394 14.678 12.5227C15.355 12.0826 16.2277 12.0826 16.9046 12.5227C17.0841 12.6394 17.2626 12.8179 17.6197 13.175L17.8187 13.374C18.3614 13.9167 18.6327 14.188 18.7801 14.4795C19.0733 15.059 19.0733 15.7435 18.7801 16.3231C18.6327 16.6146 18.3614 16.8859 17.8187 17.4286L17.6577 17.5896C17.1168 18.1305 16.8464 18.4009 16.4787 18.6074C16.0708 18.8366 15.4371 19.0014 14.9692 19C14.5475 18.9987 14.2593 18.9169 13.6828 18.7533C10.5851 17.8741 7.66206 16.2152 5.22344 13.7766C2.78482 11.3379 1.1259 8.41488 0.24667 5.31716C0.0830659 4.74075 0.00126296 4.45254 8.76052e-06 4.03083C-0.00138386 3.56289 0.1634 2.92924 0.39258 2.52127C0.599116 2.1536 0.869543 1.88317 1.4104 1.34232L1.57137 1.18134C2.11409 0.63863 2.38544 0.367274 2.67688 0.219868C3.25647 -0.0732894 3.94095 -0.0732894 4.52055 0.219868C4.81198 0.367274 5.08334 0.638629 5.62605 1.18134L5.82505 1.38034C6.18207 1.73736 6.36058 1.91587 6.47729 2.09538C6.91742 2.77233 6.91742 3.64503 6.47729 4.32198C6.36058 4.50148 6.18207 4.67999 5.82505 5.03701C5.70831 5.15375 5.64995 5.21212 5.60109 5.28034C5.42747 5.52281 5.36753 5.87437 5.45098 6.16067C5.47447 6.24123 5.50504 6.3049 5.56617 6.43223Z" fill="#A3C868"/>
</svg>
