<svg width="24" height="20" viewBox="0 0 24 20" fill="none" xmlns="http://www.w3.org/2000/svg">
<g clip-path="url(#clip0_21_192)">
<path d="M10.7208 1.03607C10.7199 0.621853 11.055 0.285325 11.4692 0.28441C11.8834 0.283494 12.2199 0.618538 12.2208 1.03275L11.4708 1.03441L10.7208 1.03607ZM12.0266 12.5294C11.7343 12.8229 11.2594 12.824 10.9659 12.5317L6.18239 7.76933C5.88885 7.47708 5.88781 7.00221 6.18005 6.70867C6.4723 6.41513 6.94717 6.41408 7.24071 6.70632L11.4927 10.9396L15.726 6.68757C16.0182 6.39404 16.4931 6.39299 16.7866 6.68523C17.0802 6.97748 17.0812 7.45235 16.789 7.74589L12.0266 12.5294ZM11.4708 1.03441L12.2208 1.03275L12.2451 11.9986L11.4951 12.0002L10.7451 12.0019L10.7208 1.03607L11.4708 1.03441Z" fill="black"/>
<path d="M2.48291 5L2.48291 16H19.5355H20.4829V5" stroke="black" stroke-width="2"/>
</g>
<defs>
<clipPath id="clip0_21_192">
<rect width="24" height="20" fill="white"/>
</clipPath>
</defs>
</svg>
