<svg aria-hidden="true" xmlns="http://www.w3.org/2000/svg" xmlns:xlink="http://www.w3.org/1999/xlink"><symbol viewBox="0 0 12 12" fill="none" id="icon-arrow-next" xmlns="http://www.w3.org/2000/svg">
<path d="M9.129 5.0835L5.106 1.0605L6.1665 0L12 5.8335L6.1665 11.667L5.106 10.6065L9.129 6.5835H0V5.0835H9.129Z" fill="currentColor"/>
</symbol><symbol viewBox="0 0 165 165" fill="none" id="icon-close" xmlns="http://www.w3.org/2000/svg">
<g clip-path="url(#bclip0_2110_1400)">
<path d="M154 9L10 153" stroke="currentColor" stroke-width="16" stroke-linecap="round" stroke-linejoin="round"/>
<path d="M154 153L10 9" stroke="currentColor" stroke-width="16" stroke-linecap="round" stroke-linejoin="round"/>
</g>
<defs>
<clipPath id="bclip0_2110_1400">
<rect width="165" height="165" fill="currentColor"/>
</clipPath>
</defs>
</symbol><symbol viewBox="0 0 11 6" fill="none" id="icon-down" xmlns="http://www.w3.org/2000/svg">
<path d="M10.3331 0L11 0.646875L5.5 6L0 0.646875L0.663437 0L5.5 4.70312L10.3331 0Z" fill="currentColor"/>
</symbol><symbol viewBox="0 0 24 20" fill="none" id="icon-download" xmlns="http://www.w3.org/2000/svg">
<g clip-path="url(#dclip0_21_192)">
<path d="M10.7208 1.03607C10.7199 0.621853 11.055 0.285325 11.4692 0.28441C11.8834 0.283494 12.2199 0.618538 12.2208 1.03275L11.4708 1.03441L10.7208 1.03607ZM12.0266 12.5294C11.7343 12.8229 11.2594 12.824 10.9659 12.5317L6.18239 7.76933C5.88885 7.47708 5.88781 7.00221 6.18005 6.70867C6.4723 6.41513 6.94717 6.41408 7.24071 6.70632L11.4927 10.9396L15.726 6.68757C16.0182 6.39404 16.4931 6.39299 16.7866 6.68523C17.0802 6.97748 17.0812 7.45235 16.789 7.74589L12.0266 12.5294ZM11.4708 1.03441L12.2208 1.03275L12.2451 11.9986L11.4951 12.0002L10.7451 12.0019L10.7208 1.03607L11.4708 1.03441Z" fill="currentColor"/>
<path d="M2.48291 5L2.48291 16H19.5355H20.4829V5" stroke="currentColor" stroke-width="2"/>
</g>
<defs>
<clipPath id="dclip0_21_192">
<rect width="24" height="20" fill="currentColor"/>
</clipPath>
</defs>
</symbol><symbol viewBox="0 0 15 16" fill="none" id="icon-location" xmlns="http://www.w3.org/2000/svg">
<path fill-rule="evenodd" clip-rule="evenodd" d="M7.5 0C9.22391 0 10.8774 0.699233 12.0964 1.94417C13.3153 3.1891 14 4.87775 14 6.63835C14 9.22648 12.3831 11.5638 10.8633 13.2022C10.0931 14.0325 9.32407 14.7084 8.7487 15.1763C8.46073 15.4105 8.22037 15.5938 8.05078 15.7189C7.96594 15.7815 7.89871 15.8296 7.85221 15.8625C7.82907 15.8789 7.81074 15.891 7.79818 15.8997C7.79189 15.9041 7.78668 15.908 7.7832 15.9104L7.7793 15.913L7.778 15.9137C7.63099 16.0138 7.44448 16.0267 7.28776 15.9516L7.22266 15.9144L7.2207 15.913L7.2168 15.9104C7.21332 15.908 7.20811 15.9041 7.20182 15.8997C7.18926 15.891 7.17093 15.8789 7.14779 15.8625C7.10129 15.8296 7.03406 15.7815 6.94922 15.7189C6.77963 15.5938 6.53927 15.4105 6.2513 15.1763C5.67593 14.7084 4.90689 14.0325 4.13672 13.2022C2.61689 11.5638 1 9.22649 1 6.63835C1 4.87775 1.68466 3.1891 2.90365 1.94417C4.12263 0.699233 5.77609 0 7.5 0ZM7.5 1.02129C6.04131 1.02129 4.64213 1.61284 3.61068 2.66625C2.57923 3.71965 2 5.14861 2 6.63835C2 8.8161 3.38317 10.9045 4.86328 12.5001C5.59294 13.2867 6.32415 13.9302 6.8737 14.3771C7.12831 14.5842 7.34375 14.7478 7.5 14.8638C7.65625 14.7478 7.8717 14.5842 8.1263 14.3771C8.67585 13.9302 9.40706 13.2867 10.1367 12.5001C11.6168 10.9045 13 8.8161 13 6.63835C13 5.14861 12.4208 3.71965 11.3893 2.66625C10.3579 1.61284 8.95869 1.02129 7.5 1.02129Z" fill="currentColor"/>
<path fill-rule="evenodd" clip-rule="evenodd" d="M7.5 4.08514C8.88071 4.08514 10 5.22825 10 6.63835C10 8.04846 8.88071 9.19157 7.5 9.19157C6.11929 9.19157 5 8.04846 5 6.63835C5 5.22825 6.11929 4.08514 7.5 4.08514ZM6 6.63835C6 5.79229 6.67157 5.10643 7.5 5.10643C8.32843 5.10643 9 5.79229 9 6.63835C9 7.48441 8.32843 8.17028 7.5 8.17028C6.67157 8.17028 6 7.48441 6 6.63835Z" fill="currentColor"/>
</symbol><symbol viewBox="0 0 13 23" fill="none" id="icon-next" xmlns="http://www.w3.org/2000/svg">
<path d="M1.08057 21.2908L10.8313 11.1656L1.08057 1.04053" stroke="currentColor" stroke-width="3"/>
</symbol><symbol viewBox="0 0 13 23" fill="none" id="icon-prev" xmlns="http://www.w3.org/2000/svg">
<path d="M11.8332 21.2907L2.08252 11.1655L11.8332 1.04047" stroke="currentColor" stroke-width="3"/>
</symbol><symbol viewBox="0 0 19 19" fill="none" id="icon-tel" xmlns="http://www.w3.org/2000/svg">
<path d="M5.56617 6.43223C6.27693 7.91259 7.24584 9.30005 8.4729 10.5271C9.69995 11.7542 11.0874 12.7231 12.5678 13.4338C12.6951 13.495 12.7588 13.5255 12.8393 13.549C13.1256 13.6325 13.4772 13.5725 13.7197 13.3989C13.7879 13.3501 13.8463 13.2917 13.963 13.175C14.32 12.8179 14.4985 12.6394 14.678 12.5227C15.355 12.0826 16.2277 12.0826 16.9046 12.5227C17.0841 12.6394 17.2626 12.8179 17.6197 13.175L17.8187 13.374C18.3614 13.9167 18.6327 14.188 18.7801 14.4795C19.0733 15.059 19.0733 15.7435 18.7801 16.3231C18.6327 16.6146 18.3614 16.8859 17.8187 17.4286L17.6577 17.5896C17.1168 18.1305 16.8464 18.4009 16.4787 18.6074C16.0708 18.8366 15.4371 19.0014 14.9692 19C14.5475 18.9987 14.2593 18.9169 13.6828 18.7533C10.5851 17.8741 7.66206 16.2152 5.22344 13.7766C2.78482 11.3379 1.1259 8.41488 0.24667 5.31716C0.0830659 4.74075 0.00126296 4.45254 8.76052e-06 4.03083C-0.00138386 3.56289 0.1634 2.92924 0.39258 2.52127C0.599116 2.1536 0.869543 1.88317 1.4104 1.34232L1.57137 1.18134C2.11409 0.63863 2.38544 0.367274 2.67688 0.219868C3.25647 -0.0732894 3.94095 -0.0732894 4.52055 0.219868C4.81198 0.367274 5.08334 0.638629 5.62605 1.18134L5.82505 1.38034C6.18207 1.73736 6.36058 1.91587 6.47729 2.09538C6.91742 2.77233 6.91742 3.64503 6.47729 4.32198C6.36058 4.50148 6.18207 4.67999 5.82505 5.03701C5.70831 5.15375 5.64995 5.21212 5.60109 5.28034C5.42747 5.52281 5.36753 5.87437 5.45098 6.16067C5.47447 6.24123 5.50504 6.3049 5.56617 6.43223Z" fill="currentColor"/>
</symbol></svg>